<?xml version="1.0" encoding="UTF-8"?>
<!DOCTYPE svg PUBLIC "-//W3C//DTD SVG 1.1//EN" "http://www.w3.org/Graphics/SVG/1.1/DTD/svg11.dtd">
<!-- Creator: CorelDRAW 2021 (64 Bit) -->
<svg xmlns="http://www.w3.org/2000/svg" xml:space="preserve" width="3.8494mm" height="3.7591mm" version="1.1" style="shape-rendering:geometricPrecision; text-rendering:geometricPrecision; image-rendering:optimizeQuality; fill-rule:evenodd; clip-rule:evenodd"
viewBox="0 0 19816 19351"
 xmlns:xlink="http://www.w3.org/1999/xlink"
 xmlns:xodm="http://www.corel.com/coreldraw/odm/2003">
 <defs>
  <style type="text/css">
   <![CDATA[
    .fil0 {fill:#FFFF01}
   ]]>
  </style>
 </defs>
 <g id="Camada_x0020_1">
  <metadata id="CorelCorpID_0Corel-Layer"/>
  <path class="fil0" d="M0 9559c0,1662 148,2547 691,4069 46,129 87,196 148,317 65,130 91,218 154,349 320,673 882,1545 1397,2086 102,107 133,169 231,272 172,179 328,326 504,502 336,336 708,638 1109,903 407,269 795,516 1235,738 300,151 1207,554 1535,554 276,0 465,-251 465,-542l0 -1819c-233,5 -376,77 -658,77 -1196,0 -2192,-62 -2698,-1249 -243,-569 -570,-1126 -1103,-1452 -153,-94 -361,-261 -379,-473 493,-330 1266,129 1617,473 469,460 830,1569 1932,1518 472,-22 826,-10 1203,-219 229,-127 112,-527 441,-1030 87,-133 221,-194 265,-355 -289,-24 -687,-100 -965,-158 -1029,-212 -1916,-658 -2584,-1441 -278,-326 -461,-716 -607,-1135 -508,-1449 -501,-3161 386,-4444 327,-473 299,-206 162,-787 -148,-630 1,-2215 319,-2215 572,0 967,189 1438,381 680,278 1068,691 1317,637 588,-127 1109,-289 1735,-284 294,3 456,-57 774,-39 693,39 1435,115 2106,296 154,41 170,70 287,10 480,-249 514,-377 1306,-709 497,-208 636,-293 1333,-293 144,620 309,514 309,1664 0,201 -22,339 -61,519 -28,130 -128,370 -118,442 19,145 1714,1651 669,4790 -381,1145 -1212,1900 -2308,2337 -532,213 -1300,412 -1896,426 253,378 439,402 571,977 213,926 -37,3154 127,3743 64,231 248,350 501,350 252,0 1212,-433 1433,-541 324,-160 672,-333 962,-548l852 -619c372,-296 705,-631 1041,-971 103,-104 131,-166 232,-272 547,-574 1057,-1370 1404,-2079 581,-1190 1005,-2617 1005,-3987 0,-1319 -92,-2611 -575,-3798 -235,-579 -466,-1090 -767,-1632l-477 -723c-342,-485 -693,-905 -1113,-1326 -906,-908 -2055,-1661 -3244,-2136 -158,-63 -311,-119 -448,-171 -1691,-635 -3843,-705 -5606,-276 -932,227 -1746,574 -2581,1019 -752,399 -1475,965 -2074,1564 -590,592 -1154,1293 -1575,2024 -149,258 -273,503 -414,785 -472,935 -942,2511 -942,3896z"/>
 </g>
</svg>
