<?xml version="1.0" encoding="UTF-8"?>
<!DOCTYPE svg PUBLIC "-//W3C//DTD SVG 1.1//EN" "http://www.w3.org/Graphics/SVG/1.1/DTD/svg11.dtd">
<!-- Creator: CorelDRAW 2021 (64 Bit) -->
<svg xmlns="http://www.w3.org/2000/svg" xml:space="preserve" width="3.6196mm" height="3.6155mm" version="1.1" style="shape-rendering:geometricPrecision; text-rendering:geometricPrecision; image-rendering:optimizeQuality; fill-rule:evenodd; clip-rule:evenodd"
viewBox="0 0 15198 15180"
 xmlns:xlink="http://www.w3.org/1999/xlink"
 xmlns:xodm="http://www.corel.com/coreldraw/odm/2003">
 <defs>
  <style type="text/css">
   <![CDATA[
    .fil0 {fill:#FFFF01}
   ]]>
  </style>
 </defs>
 <g id="Camada_x0020_1">
  <metadata id="CorelCorpID_0Corel-Layer"/>
  <path class="fil0" d="M0 1012l0 13157c0,144 56,299 106,400 165,330 554,613 923,613l13123 0c128,0 341,-65 427,-113 51,-28 123,-71 165,-104 289,-229 453,-519 453,-914l0 -12921c0,-486 -244,-803 -608,-1012 -84,-48 -304,-118 -438,-118l-13123 0c-498,0 -1029,500 -1029,1012zm2248 11921l2260 5 0 -7249 -2257 0 -3 7244zm5832 -6254l0 -991 -2159 0 -4 7249 2252 0 0 -3559c0,-1099 244,-1885 1379,-1885 1219,0 1139,1314 1139,2155 0,1093 0,2187 0,3281 155,26 1946,8 2256,8l0 -4150c0,-652 -93,-1464 -340,-1992 -253,-542 -606,-901 -1210,-1118 -568,-204 -1425,-231 -2005,-36 -437,147 -772,377 -1054,700 -107,124 -198,315 -254,337zm-4889 -4577c-659,102 -1234,703 -1106,1496 105,655 712,1205 1489,1090 657,-97 1204,-712 1098,-1482 -89,-647 -711,-1222 -1480,-1104z"/>
 </g>
</svg>
